# xmcd
#
# Track frame offsets:
# 150
# 19075
# 36257
# 54987
#
# Disc length: 959 seconds
#
#
# Revision: 0
# Processed by: cddbd v1.5.2PL0 Copyright (c) Steve Scherf et al.
# Submitted via: FreeRIP 2.40 
#
DISCID=2903bd04
DTITLE=Anointed - Under The Influence [CD Single)
DYEAR=1996
DGENRE=Contemporary Christian
TTITLE0=LP Version
TTITLE1=Bogan Remix
TTITLE2=Acoustic Mix
TTITLE3=A Capella
EXTD=
EXTT0=
EXTT1=
EXTT2=
EXTT3=
PLAYORDER=
